HIERARCHY
ROOT Hips
{
	OFFSET -0.179506 -22.333345 2.821913
	CHANNELS 6 Xposition Yposition Zposition Zrotation Yrotation Xrotation 
	JOINT LeftUpLeg
	{
		OFFSET 6.951974 -9.140623 -0.681533
		CHANNELS 3 Zrotation Yrotation Xrotation
		JOINT LeftLeg
		{
			OFFSET 3.427654 -37.519855 -0.449580
			CHANNELS 3 Zrotation Yrotation Xrotation
			JOINT LeftFoot
			{
				OFFSET -1.359570 -39.796059 -4.369333
				CHANNELS 3 Zrotation Yrotation Xrotation
				JOINT LeftToe
				{
					OFFSET 2.635814 -5.579078 11.928840
					CHANNELS 3 Zrotation Yrotation Xrotation
					End Site
					{
						OFFSET 0.000000 0.000000 0.000000
					}
				}
			}
		}
	}
	JOINT RightUpLeg
	{
		OFFSET -6.767048 -9.052170 -0.431982
		CHANNELS 3 Zrotation Yrotation Xrotation
		JOINT RightLeg
		{
			OFFSET -3.829005 -38.256897 -0.885003
			CHANNELS 3 Zrotation Yrotation Xrotation
			JOINT RightFoot
			{
				OFFSET 1.577377 -39.841461 -4.231180
				CHANNELS 3 Zrotation Yrotation Xrotation
				JOINT RightToe
				{
					OFFSET -2.537174 -4.814398 12.334795
					CHANNELS 3 Zrotation Yrotation Xrotation
					End Site
					{
						OFFSET 0.000000 0.000000 0.000000
					}
				}
			}
		}
	}
	JOINT Spine
	{
		OFFSET -0.253288 10.896323 -2.669631
		CHANNELS 3 Zrotation Yrotation Xrotation
		JOINT Spine1
		{
			OFFSET 0.548704 13.518043 0.109247
			CHANNELS 3 Zrotation Yrotation Xrotation
			JOINT Spine2
			{
				OFFSET 0.145701 5.292222 2.542457
				CHANNELS 3 Zrotation Yrotation Xrotation
				JOINT Neck
				{
					OFFSET -0.277840 21.387037 -4.285703
					CHANNELS 3 Zrotation Yrotation Xrotation
					JOINT Head
					{
						OFFSET 0.515184 6.496960 5.134897
						CHANNELS 3 Zrotation Yrotation Xrotation
						End Site
						{
							OFFSET 0.000000 0.000000 0.000000
						}
					}
				}
				JOINT LeftShoulder
				{
					OFFSET 7.884473 12.174932 -3.408961
					CHANNELS 3 Zrotation Yrotation Xrotation
					JOINT LeftArm
					{
						OFFSET 9.097692 3.046888 -0.886815
						CHANNELS 3 Zrotation Yrotation Xrotation
						JOINT LeftForeArm
						{
							OFFSET 25.961220 -1.277207 -2.745643
							CHANNELS 3 Zrotation Yrotation Xrotation
							JOINT LeftHand
							{
								OFFSET 24.923361 0.898606 -0.117091
								CHANNELS 3 Zrotation Yrotation Xrotation
								End Site
								{
									OFFSET 0.000000 0.000000 0.000000
								}
							}
						}
					}
				}
				JOINT RightShoulder
				{
					OFFSET -8.175920 11.883285 -3.861528
					CHANNELS 3 Zrotation Yrotation Xrotation
					JOINT RightArm
					{
						OFFSET -9.601238 3.255117 -0.914307
						CHANNELS 3 Zrotation Yrotation Xrotation
						JOINT RightForeArm
						{
							OFFSET -25.374195 -1.332924 -2.140099
							CHANNELS 3 Zrotation Yrotation Xrotation
							JOINT RightHand
							{
								OFFSET -25.529810 0.777228 -0.555919
								CHANNELS 3 Zrotation Yrotation Xrotation
								End Site
								{
									OFFSET 0.000000 0.000000 0.000000
								}
							}
						}
					}
				}
			}
		}
	}
}
MOTION
Frames: 7
Frame Time: 0.033333
-35.083286 18.118778 94.259140 178.780982 0.269237 86.173575 0.821806 0.851481 8.157632 1.648576 -5.334321 -2.971960 1.902112 9.212022 -9.430982 nan nan nan -2.113659 -1.899534 6.851921 1.520072 1.517796 -5.003998 8.584731 -2.187717 -2.642012 nan nan nan 1.445210 1.501490 10.034179 0.375156 -2.360384 -1.851872 0.953358 -0.600663 -1.057089 -0.797712 -3.996240 -2.118938 1.550341 -4.763167 -1.717443 -20.358455 1.840356 1.849145 -62.245994 -5.523016 10.204203 2.505590 -20.827010 7.690312 -7.846582 -11.715674 -17.213380 19.430924 1.090636 0.693459 61.226436 4.702367 12.937311 -6.321811 24.649675 -2.030262 7.591746 7.774005 -16.987094 
-35.071278 18.128290 94.262878 178.787736 0.284611 86.183896 0.845484 0.848899 8.152617 1.638796 -5.335591 -2.985796 1.890486 9.234960 -9.428974 nan nan nan -2.095324 -1.895259 6.849264 1.511506 1.522676 -5.026550 8.577969 -2.214242 -2.640995 nan nan nan 1.454363 1.501332 9.997639 0.373074 -2.363221 -1.849320 0.956885 -0.604631 -1.041181 -0.787286 -4.002957 -2.108897 1.549351 -4.760550 -1.741404 -20.379603 1.842950 1.843032 -62.218779 -5.538661 10.192924 2.503013 -20.821895 7.714570 -7.815488 -11.694862 -17.172613 19.433636 1.099532 0.697260 61.227029 4.711939 12.935636 -6.321608 24.649633 -2.019975 7.554475 7.752070 -16.969070 
-35.034340 18.138931 94.265938 178.850707 0.329994 86.238778 0.954353 0.821940 8.100171 1.572574 -5.288775 -3.015544 1.855956 9.274595 -9.416488 nan nan nan -2.006785 -1.882899 6.858438 1.493113 1.541005 -5.145135 8.558969 -2.340468 -2.640847 nan nan nan 1.423145 1.499858 9.865187 0.392099 -2.401584 -1.794939 0.992351 -0.620468 -1.013020 -0.751133 -4.008908 -2.064024 1.543026 -4.764630 -1.819528 -20.472192 1.834628 1.860288 -62.091787 -5.581016 10.155569 2.462789 -20.832248 7.792196 -7.768792 -11.650218 -17.083318 19.489071 1.155625 0.756676 61.208945 4.734785 12.927239 -6.374489 24.676320 -2.029196 7.395480 7.704223 -16.894988 
-35.007317 18.101027 94.263329 178.948866 0.391010 86.370019 1.077522 0.690816 7.879477 1.493337 -5.230592 -2.954552 1.850346 9.277634 -9.373350 nan nan nan -1.886756 -1.828973 6.698311 1.511167 1.481561 -5.148971 8.692812 -2.456259 -2.569455 nan nan nan 1.417446 1.471020 9.802116 0.410371 -2.467448 -1.812864 1.038927 -0.644387 -1.079068 -0.783574 -3.987828 -1.928052 1.554397 -4.732514 -1.979809 -20.478184 1.826328 1.888782 -62.043032 -5.586766 10.133059 2.377555 -20.868130 7.934806 -7.861986 -11.647075 -17.051613 19.448866 1.228961 0.852291 61.241341 4.754407 12.913713 -6.372021 24.746217 -1.934444 7.402772 7.652794 -16.890240 
-35.010109 18.065401 94.255867 178.955795 0.418493 86.427217 1.094030 0.677644 7.788269 1.523394 -5.195224 -2.955947 1.827186 9.260589 -9.346765 nan nan nan -1.838804 -1.805763 6.584735 1.508496 1.456164 -5.101326 8.781022 -2.462012 -2.503235 nan nan nan 1.462438 1.447031 9.844312 0.404560 -2.463848 -1.910500 1.031398 -0.663006 -1.072717 -0.804702 -3.976773 -1.956303 1.564268 -4.727777 -1.969000 -20.422218 1.839570 1.891943 -62.109060 -5.607304 10.133038 2.380551 -20.920778 7.953956 -7.919365 -11.711659 -17.097672 19.395570 1.230655 0.826078 61.293209 4.772410 12.923113 -6.308542 24.740307 -1.849096 7.530760 7.624874 -16.971595 
-35.002995 18.039640 94.249474 178.953946 0.444988 86.466985 1.107452 0.654584 7.755281 1.585251 -5.269042 -3.007762 1.809348 9.247024 -9.292544 nan nan nan -1.776448 -1.755916 6.530825 1.485954 1.465916 -5.097391 8.770535 -2.476574 -2.490094 nan nan nan 1.465592 1.430874 9.870899 0.425325 -2.457788 -1.986273 1.038675 -0.664516 -1.040405 -0.823125 -3.955665 -1.995916 1.560447 -4.764717 -1.958375 -20.372166 1.851748 1.914862 -62.148584 -5.635246 10.175390 2.343378 -21.005776 8.032150 -7.916071 -11.816284 -17.202172 19.413770 1.199815 0.788703 61.358000 4.781279 12.939343 -6.376055 24.755344 -1.886833 7.476230 7.625219 -17.107590 
-34.995502 18.024317 94.243858 178.962088 0.445797 86.491972 1.095872 0.655312 7.739901 1.626438 -5.321007 -3.046607 1.822259 9.243480 -9.304835 nan nan nan -1.750498 -1.741883 6.508210 1.458121 1.460530 -5.128344 8.696913 -2.468974 -2.543495 nan nan nan 1.445233 1.426592 9.889426 0.427497 -2.450910 -2.046205 1.057796 -0.683753 -1.001463 -0.802321 -3.929586 -2.076195 1.551157 -4.783048 -1.918320 -20.351326 1.854367 1.904819 -62.128260 -5.652581 10.206846 2.284527 -21.044474 8.035265 -7.843540 -11.833217 -17.220326 19.440091 1.163099 0.742889 61.378599 4.799135 12.952704 -6.401867 24.771528 -1.945781 7.422421 7.638184 -17.167485 
